# xmcd CD database file
#
# Track frame offsets:
#	150
#	21522
#	36510
#	53910
#	87236
#	108073
#	129235
#	144117
#	164840
#	188949
#	199929
#	227146
#	237526
#	252505
#	280809
#
# Disc length: 3992 seconds
#
# Revision: 0
# Processed by: cddbd v1.5.2PL0 Copyright (c) Steve Scherf et al.
# Submitted via: CDex 1.51
#
DISCID=db0f960f
DTITLE=VARIOS - SUPER SALSA
DYEAR=1995
DGENRE=Salsa
TTITLE0=MY GHETTO
TTITLE1=FUEGO A LA JICOTEA
TTITLE2=CARUPANO CANTA
TTITLE3=TIENE SABOR
TTITLE4=EL TIMBALERO
TTITLE5=MONTUNO
TTITLE6=PARA QUE GOZEN LOS POLLOS
TTITLE7=POSITIVO
TTITLE8=CHIVIRIQUITÓN
TTITLE9=A LA LA E
TTITLE10=EL YOYO
TTITLE11=THE DON JOSE PACHANGA
TTITLE12=MARGIE
TTITLE13=LA CULEBRA
TTITLE14=ME TIENES LOCO
EXTD=YEAR: 1995
EXTT0=
EXTT1=
EXTT2=
EXTT3=
EXTT4=
EXTT5=
EXTT6=
EXTT7=
EXTT8=
EXTT9=
EXTT10=
EXTT11=
EXTT12=
EXTT13=
EXTT14=
PLAYORDER=
